#define check_in_width 20
#define check_in_height 15
static char check_in_bits[] = {
  0x00, 0x00, 0x00, 0x00, 0x00, 0x00, 0x00, 0x80, 0x00, 0x00, 0xc0, 0x00, 
  0x00, 0xe0, 0x00, 0x00, 0x70, 0x00, 0xc0, 0x38, 0x00, 0xe0, 0x1c, 0x00, 
  0xe0, 0x0e, 0x00, 0xe0, 0x07, 0x00, 0xe0, 0x03, 0x00, 0xe0, 0x01, 0x00, 
  0xc0, 0x00, 0x00, 0x00, 0x00, 0x00, 0x00, 0x00, 0x00, };
