/* XPM */
static char * disabled_xpm[] = {
"20 15 2 1",
" 	c None",
".	c grey63",
"                    ",
"                    ",
"               .    ",
"              ..    ",
"             ...    ",
"            ...     ",
"      ..   ...      ",
"     ...  ...       ",
"     ... ...        ",
"     ......         ",
"     .....          ",
"     ....           ",
"      ..            ",
"                    ",
"                    "};
